:SAMPLES-PER-SECOND 30
:FULLY-SPECIFIED
:DEGREES
334
root  -31.5109 39.868 -25.8643 141.804 74.5626 143.411
RightUpLeg  -6.97465 8.18868 -10.6563
RightLeg  59.9619 3.98237 6.98254
RightFoot  14.8217 -2.7487 12.1249
RightToes  -4.65663e-010 0 -3.6325e-017
Spine  4.03942 1.81606 -3.50725
Spine1  11.0341 2.97042 -5.83298
HEad  -11.2146 -7.78387 4.76729
LeftShoulder1  9.02682 -12.8468 -48.192
LeftArm  -3.48741 17.8018 -18.3217
LeftForeArm  30.5039 -5.7979 -6.95355
LeftHand  -0.244104 0.0205437 5.32207
RightShoulder  6.7454 10.5637 41.7057
RightArm  -9.52672 0.632683 37.5966
RightForeArm  23.3451 -4.24346 4.60032
RightHand  -0.293196 -2.89527 -13.2067
LeftUpLeg  -9.55662 13.106 -4.14016
LeftLeg  17.1255 11.4359 -0.0449452
LeftFoot  -3.0038 0.106899 -1.22535
LeftToes  -7.27628e-011 -1.6005e-012 -1.37987e-011
335
root  -30.4627 40.2578 -26.6075 143.988 75.7479 146.001
RightUpLeg  -11.9009 5.61298 -9.25416
RightLeg  61.9108 0.708491 0.976374
RightFoot  10.462 -1.29795 7.12256
RightToes  -4.65663e-010 0 -3.6325e-017
Spine  4.51733 0.683171 -3.34923
Spine1  10.6707 1.42472 -4.03597
HEad  -11.6531 -5.87502 3.48805
LeftShoulder1  8.86425 -12.6346 -47.9426
LeftArm  -3.74091 14.2714 -16.7668
LeftForeArm  30.0439 -6.59519 -7.084
LeftHand  -0.244104 0.0205437 5.32207
RightShoulder  6.59826 10.2429 41.7519
RightArm  -3.72157 -2.59953 36.0812
RightForeArm  20.9246 2.13919 6.92327
RightHand  -0.40053 -1.77087 -12.7162
LeftUpLeg  -5.42289 10.4007 -2.46508
LeftLeg  14.003 14.7508 -1.36945
LeftFoot  -4.05682 0.131853 -1.69787
LeftToes  -7.27628e-011 -1.6005e-012 -1.37987e-011
336
root  -29.4453 40.4751 -27.2811 146.747 76.7794 149.003
RightUpLeg  -16.1558 2.63141 -7.48197
RightLeg  60.5449 -1.38324 -3.1354
RightFoot  7.05876 -0.668942 4.47267
RightToes  -4.65663e-010 0 -3.6325e-017
Spine  5.26633 -0.262691 -3.64051
Spine1  9.94224 -0.109637 -2.14881
HEad  -11.8634 -4.23875 2.41927
LeftShoulder1  8.6589 -12.3824 -47.5688
LeftArm  -4.83788 11.0614 -15.5252
LeftForeArm  28.6593 -7.78908 -6.91043
LeftHand  -0.244104 0.0205437 5.32207
RightShoulder  6.32121 9.72203 41.5583
RightArm  4.50652 -6.28878 34.0391
RightForeArm  16.5603 10.6549 8.00488
RightHand  -0.358456 -1.29728 -10.0146
LeftUpLeg  -2.12714 8.1458 -1.26041
LeftLeg  11.7549 17.3836 -2.55778
LeftFoot  -5.30987 0.143698 -2.11007
LeftToes  -7.27628e-011 -1.6005e-012 -1.37987e-011
337
root  -28.4141 40.6141 -27.9259 148.948 77.7774 151.56
RightUpLeg  -19.313 -0.0820634 -5.4142
RightLeg  55.9878 -2.69661 -4.72779
RightFoot  5.52837 -0.396954 2.92406
RightToes  -4.65663e-010 0 -3.6325e-017
Spine  6.36713 -1.0105 -3.93495
Spine1  8.94213 -1.40244 -0.373944
HEad  -12.1967 -2.8478 1.5397
LeftShoulder1  8.44869 -12.1852 -46.9857
LeftArm  -6.27508 8.2189 -14.6037
LeftForeArm  26.6887 -9.50741 -6.47382
LeftHand  -0.244104 0.0205437 5.32207
RightShoulder  6.03486 9.33949 40.8033
RightArm  16.1749 -10.0438 32.6954
RightForeArm  6.93448 19.1469 5.92281
RightHand  -0.284007 -1.37315 -8.11419
LeftUpLeg  1.13013 6.64962 -0.542364
LeftLeg  9.63879 19.1519 -3.52734
LeftFoot  -6.16524 0.125 -1.93476
LeftToes  -7.27628e-011 -1.6005e-012 -1.37987e-011
338
root  -27.3621 40.6584 -28.5338 150.08 78.5078 153.083
RightUpLeg  -21.1206 -3.10127 -3.3136
RightLeg  48.2595 -3.21427 -4.21976
RightFoot  3.71323 -0.131921 1.19212
RightToes  -4.65663e-010 0 -3.6325e-017
Spine  7.49342 -1.6159 -4.32223
Spine1  8.05448 -2.43256 1.0119
HEad  -12.7835 -1.91451 1.07771
LeftShoulder1  8.28751 -12.0688 -46.4201
LeftArm  -7.20788 5.33212 -13.5563
LeftForeArm  24.3685 -11.5594 -6.0045
LeftHand  -0.244104 0.0205437 5.32207
RightShoulder  5.8254 9.17582 39.8157
RightArm  19.2988 -13.4098 31.6856
RightForeArm  4.10481 24.6342 4.84405
RightHand  -0.329103 -1.13215 -8.85454
LeftUpLeg  4.21212 6.32717 -0.346418
LeftLeg  8.06442 19.7182 -3.97389
LeftFoot  -7.46169 0.114137 -2.10736
LeftToes  -7.27628e-011 -1.6005e-012 -1.37987e-011
339
root  -26.2446 40.4914 -29.1019 148.406 78.9733 151.689
RightUpLeg  -21.654 -7.06008 -1.51004
RightLeg  37.7607 -2.74688 -2.57155
RightFoot  1.85618 -0.0930836 0.93143
RightToes  -4.65663e-010 0 -3.6325e-017
Spine  8.17425 -1.98356 -5.12931
Spine1  7.55529 -3.05474 1.60524
HEad  -13.3839 -1.64814 1.0021
LeftShoulder1  8.20772 -12.042 -46.0417
LeftArm  -7.67475 2.11394 -12.257
LeftForeArm  22.1539 -13.6832 -5.53255
LeftHand  -0.244104 0.0205437 5.32207
RightShoulder  5.66151 9.03744 39.0534
RightArm  17.3789 -15.9639 31.0479
RightForeArm  5.36606 27.0013 5.52643
RightHand  -0.431418 -0.688109 -10.6418
LeftUpLeg  6.50757 6.50378 -0.793226
LeftLeg  8.38275 19.9967 -3.6588
LeftFoot  -9.93707 0.0962649 -3.00966
LeftToes  -7.27628e-011 -1.6005e-012 -1.37987e-011
340
root  -25.0326 40.2589 -29.6554 145.743 79.3163 149.196
RightUpLeg  -21.0645 -12.8848 0.785125
RightLeg  24.8378 -1.27538 -1.0867
RightFoot  1.29516 -0.211778 1.98608
RightToes  -4.65663e-010 0 -3.6325e-017
Spine  8.21814 -2.236 -5.80291
Spine1  7.52741 -3.41449 1.95915
HEad  -13.7981 -1.8703 1.03953
LeftShoulder1  8.18192 -12.0735 -45.7966
LeftArm  -8.42586 -1.10571 -11.1151
LeftForeArm  20.5304 -15.9033 -4.93673
LeftHand  -0.244104 0.0205437 5.32207
RightShoulder  5.49548 8.79769 38.6041
RightArm  15.8098 -17.6223 30.9785
RightForeArm  4.58308 26.4737 5.41585
RightHand  -0.487406 -0.61062 -11.8388
LeftUpLeg  8.80891 6.50374 -1.53337
LeftLeg  8.69048 20.5489 -3.35327
LeftFoot  -11.9978 0.0544474 -3.30276
LeftToes  -7.27628e-011 -1.6005e-012 -1.37987e-011
341
root  -23.769 40.0903 -30.1768 144.891 79.2394 148.401
RightUpLeg  -19.0484 -15.599 1.81987
RightLeg  9.62244 -3.58337 1.80343
RightFoot  1.41936 -0.199998 1.8693
RightToes  -4.65663e-010 0 -3.6325e-017
Spine  7.9436 -2.56108 -6.31426
Spine1  7.70339 -3.93019 2.86249
HEad  -14.2497 -2.48507 1.34624
LeftShoulder1  8.1675 -12.1174 -45.5803
LeftArm  -9.56322 -3.87629 -10.5058
LeftForeArm  19.5315 -18.2532 -4.32863
LeftHand  -0.244104 0.0205437 5.32207
RightShoulder  5.37138 8.57453 38.4105
RightArm  13.8001 -18.6561 31.2547
RightForeArm  2.7582 23.3396 5.07149
RightHand  -0.510988 -0.748057 -12.749
LeftUpLeg  11.5269 6.27648 -2.16037
LeftLeg  7.73109 20.833 -3.55346
LeftFoot  -13.0197 0.0367831 -2.84988
LeftToes  -7.27628e-011 -1.6005e-012 -1.37987e-011
342
root  -22.4142 39.7997 -30.6495 144.022 78.4646 147.622
RightUpLeg  -15.9698 -5.13815 -2.82829
RightLeg  -4.08177 -17.2848 7.73702
RightFoot  0.723453 -0.120349 1.23571
RightToes  -4.65663e-010 0 -3.6325e-017
Spine  7.76803 -2.87744 -7.43992
Spine1  7.45912 -4.51082 3.99955
HEad  -14.9704 -3.77852 2.05233
LeftShoulder1  8.14622 -12.1567 -45.3391
LeftArm  -10.3761 -6.18308 -10.494
LeftForeArm  18.7928 -20.6278 -3.97782
LeftHand  -0.244104 0.0205437 5.32207
RightShoulder  5.37423 8.53694 38.5653
RightArm  7.95063 -19.3174 31.3216
RightForeArm  4.89371 17.762 5.83031
RightHand  -0.56781 -0.53763 -13.5759
LeftUpLeg  13.9768 6.20969 -2.76406
LeftLeg  7.88912 20.1129 -3.64136
LeftFoot  -14.8583 -0.0201633 -3.41878
LeftToes  -7.27628e-011 -1.6005e-012 -1.37987e-011
343
root  -20.9662 39.3819 -31.0887 141.828 77.8476 145.787
RightUpLeg  -16.5897 -5.68839 -2.92796
RightLeg  -6.29741 -16.6116 7.90626
RightFoot  -1.48229 -0.255584 2.80127
RightToes  -4.65663e-010 0 -3.6325e-017
Spine  7.93996 -2.94678 -8.30009
Spine1  6.90158 -4.69043 4.63803
HEad  -15.4108 -5.65731 2.05443
LeftShoulder1  8.11439 -12.1829 -45.0767
LeftArm  -10.8324 -7.97569 -10.9545
LeftForeArm  18.5234 -23.2907 -4.05064
LeftHand  -0.244104 0.0205437 5.32207
RightShoulder  5.51376 8.69871 39.0924
RightArm  -2.66034 -19.5231 30.9042
RightForeArm  12.8834 10.4195 6.86922
RightHand  -0.640138 0.0200217 -13.7761
LeftUpLeg  16.3315 6.51752 -3.03919
LeftLeg  9.47325 18.8947 -3.51837
LeftFoot  -17.2258 -0.156728 -5.08644
LeftToes  -7.27628e-011 -1.6005e-012 -1.37987e-011
344
root  -19.4934 39.096 -31.5136 141.455 78.2757 145.925
RightUpLeg  -16.8233 -5.73028 -2.3628
RightLeg  -3.39199 -16.5412 7.14908
RightFoot  -0.93883 -0.261962 2.80261
RightToes  -4.65663e-010 0 -3.6325e-017
Spine  8.19782 -2.83624 -7.26693
Spine1  7.05761 -4.68056 4.77007
HEad  -16.123 -7.71851 1.61907
LeftShoulder1  8.1004 -12.1905 -44.9732
LeftArm  -11.8312 -8.64346 -11.5779
LeftForeArm  20.0177 -26.8984 -4.70571
LeftHand  -0.244104 0.0205437 5.32207
RightShoulder  5.69107 8.92127 39.6822
RightArm  -8.96511 -19.468 30.6
RightForeArm  16.7253 4.27516 5.41142
RightHand  -0.665994 0.291211 -13.6624
LeftUpLeg  18.9892 7.41526 -2.1268
LeftLeg  10.6843 17.6079 -3.39265
LeftFoot  -17.9552 -0.261632 -6.38568
LeftToes  -7.27628e-011 -1.6005e-012 -1.37987e-011
345
root  -17.8322 38.8807 -31.9354 145.325 78.6135 150.252
RightUpLeg  -17.6557 -7.56777 -0.659835
RightLeg  3.55946 -16.4842 5.20597
RightFoot  1.25633 0.161071 -1.22123
RightToes  -4.65663e-010 0 -3.6325e-017
Spine  7.46219 -3.24193 -5.27814
Spine1  7.86897 -5.08412 4.69807
HEad  -16.6947 -9.44183 0.688137
LeftShoulder1  8.15035 -12.1787 -45.2968
LeftArm  -12.6289 -7.58715 -12.1684
LeftForeArm  23.4451 -31.5057 -5.59358
LeftHand  -0.244104 0.0205437 5.32207
RightShoulder  5.77249 9.01556 39.9721
RightArm  -11.9968 -19.9316 30.3956
RightForeArm  16.8308 1.15936 4.07498
RightHand  -0.637231 -0.0805702 -13.9671
LeftUpLeg  21.565 10.502 0.681446
LeftLeg  12.7059 13.279 -2.60172
LeftFoot  -17.7392 -0.356413 -8.23123
LeftToes  -7.27628e-011 -1.6005e-012 -1.37987e-011
346
root  -16.01 38.797 -32.3369 154.291 78.85 159.402
RightUpLeg  -18.525 -12.1001 2.98659
RightLeg  9.65934 -13.617 2.44173
RightFoot  4.00168 1.17253 -8.5002
RightToes  -4.65663e-010 0 -3.6325e-017
Spine  5.76038 -3.96412 -2.26631
Spine1  8.68408 -5.68929 4.70759
HEad  -16.2789 -10.851 -0.723433
LeftShoulder1  8.2172 -12.088 -45.9569
LeftArm  -12.5144 -4.88177 -13.0349
LeftForeArm  28.3011 -35.9911 -6.44852
LeftHand  -0.244104 0.0205437 5.32207
RightShoulder  5.70973 8.88615 39.9476
RightArm  -12.6052 -21.4653 30.0931
RightForeArm  15.2285 1.33027 3.93855
RightHand  -0.584486 -0.619218 -14.1972
LeftUpLeg  23.91 15.8295 5.81994
LeftLeg  15.1213 5.49974 -1.21314
LeftFoot  -16.3456 -0.443525 -12.5701
LeftToes  -7.27628e-011 -1.6005e-012 -1.37987e-011
347
root  -14.1821 38.8158 -32.6787 163.923 79.9212 168.996
RightUpLeg  -19.2996 -14.9372 6.77987
RightLeg  14.5686 -10.3359 0.181538
RightFoot  4.29683 2.0171 -14.4687
RightToes  -4.65663e-010 0 -3.6325e-017
Spine  4.09384 -4.13534 1.38295
Spine1  8.86202 -5.64713 4.53827
HEad  -14.8306 -12.0367 -2.28787
LeftShoulder1  8.15929 -11.8277 -46.4185
LeftArm  -11.8771 -0.956873 -14.7762
LeftForeArm  32.7753 -39.2996 -7.09628
LeftHand  -0.244104 0.0205437 5.32207
RightShoulder  5.58073 8.64738 39.7993
RightArm  -11.4985 -23.2434 29.715
RightForeArm  14.7049 3.28531 4.48027
RightHand  -0.521247 -0.830362 -13.2263
LeftUpLeg  24.31 19.691 10.4652
LeftLeg  19.7618 0.48419 0.729224
LeftFoot  -12.0177 -0.0127241 -17.855
LeftToes  -7.27628e-011 -1.6005e-012 -1.37987e-011
348
root  -12.4488 38.8318 -32.9476 172.309 81.6266 177.392
RightUpLeg  -19.2699 -17.4464 9.81958
RightLeg  18.9337 -6.16108 -1.43975
RightFoot  1.54452 1.83933 -16.0022
RightToes  -4.65663e-010 0 -3.6325e-017
Spine  3.24332 -3.8555 4.38317
Spine1  8.51295 -5.00219 4.19774
HEad  -13.4387 -12.8482 -3.4117
LeftShoulder1  7.97201 -11.472 -46.4283
LeftArm  -11.8091 3.74466 -17.3401
LeftForeArm  34.8452 -41.4028 -7.59499
LeftHand  -0.244104 0.0205437 5.32207
RightShoulder  5.50293 8.52627 39.6243
RightArm  -10.3367 -23.8738 29.6839
RightForeArm  15.9518 5.31903 4.95197
RightHand  -0.467102 -0.738442 -11.6459
LeftUpLeg  20.615 17.0207 11.0228
LeftLeg  28.9224 3.96519 2.77693
LeftFoot  -2.69849 1.36841 -18.5608
LeftToes  -7.27628e-011 -1.6005e-012 -1.37987e-011
